<?xml version="1.0" standalone="no"?>
<!DOCTYPE svg PUBLIC "-//W3C//DTD SVG 20010904//EN"
 "http://www.w3.org/TR/2001/REC-SVG-20010904/DTD/svg10.dtd">
<svg version="1.0" xmlns="http://www.w3.org/2000/svg"
 width="236.000000pt" height="236.000000pt" viewBox="0 0 236.000000 236.000000"
 preserveAspectRatio="xMidYMid meet">

<g transform="translate(0.000000,236.000000) scale(0.100000,-0.100000)"
fill="#000000" stroke="none">
<path d="M50 2341 c0 -28 37 -101 51 -101 6 0 3 7 -5 16 -9 8 -16 18 -16 22 1
11 50 -48 50 -59 0 -5 -5 -9 -11 -9 -5 0 -7 6 -3 13 6 9 4 9 -8 -1 -20 -16
-29 -59 -14 -67 11 -5 -30 0 -74 10 -28 6 -26 5 44 -40 22 -15 32 -31 36 -55
5 -35 5 -35 -50 -52 -32 -10 -45 -17 -31 -17 17 -1 22 -5 17 -17 -5 -13 -4
-14 7 -5 11 8 18 6 32 -9 18 -20 16 -23 -20 -22 -11 0 -4 -4 17 -10 28 -9 44
-23 70 -64 18 -30 40 -54 48 -54 9 0 21 -5 26 -10 13 -13 117 -40 152 -40 32
0 108 22 150 44 16 8 50 38 75 65 51 58 84 152 74 220 -7 53 -50 145 -87 187
-28 33 -30 33 -31 12 -1 -21 -2 -21 -6 -3 -3 11 -14 29 -24 41 -18 19 -31 21
-141 22 -67 1 -125 -1 -129 -4 -5 -3 5 -31 22 -63 17 -31 31 -72 31 -90 1 -25
8 -35 29 -47 16 -8 36 -27 44 -42 15 -25 15 -25 9 -3 -4 14 -20 54 -35 89 -16
35 -29 67 -29 70 0 15 28 -38 55 -100 33 -81 37 -82 143 -33 41 20 76 34 78
32 2 -2 -17 -14 -44 -26 -26 -12 -54 -26 -62 -31 -8 -5 -39 -22 -68 -37 l-53
-28 -21 25 c-11 14 -16 18 -12 10 7 -13 5 -13 -9 -1 -18 14 -24 37 -8 27 5 -4
8 2 7 11 -2 12 -10 17 -24 15 -16 -2 -20 1 -16 11 3 8 0 18 -6 22 -6 3 -9 3
-8 -2 4 -10 -5 -13 -33 -13 -18 0 -19 3 -9 15 10 12 9 16 -4 21 -9 3 -13 11
-9 16 4 7 -4 9 -20 6 -15 -3 -24 -1 -21 3 3 5 13 9 22 10 11 1 8 4 -8 9 -17 6
-19 8 -7 9 14 1 16 5 7 20 -13 25 -13 34 0 26 21 -13 8 11 -22 40 -26 25 -29
27 -24 9 4 -12 3 -31 -2 -44 -8 -21 -10 -20 -50 25 -35 40 -42 44 -42 26z
m245 -11 c8 -13 -5 -13 -25 0 -13 8 -13 10 2 10 9 0 20 -4 23 -10z m240 -120
c3 -5 1 -10 -4 -10 -6 0 -11 5 -11 10 0 6 2 10 4 10 3 0 8 -4 11 -10z m-308
-36 c-3 -3 -12 -4 -19 -1 -8 3 -5 6 6 6 11 1 17 -2 13 -5z m-27 -56 c0 -5 5
-8 11 -8 5 0 8 4 4 9 -3 5 -1 12 5 16 6 3 13 -1 16 -9 3 -9 10 -14 14 -11 12
7 19 -20 10 -35 -11 -17 -67 25 -87 65 l-14 30 20 -25 c11 -14 21 -28 21 -32z
m340 -11 c0 -2 -9 -12 -20 -22 -24 -21 -27 -14 -4 9 15 15 24 20 24 13z m-193
-95 c10 2 21 7 25 13 13 18 21 -5 10 -30 -9 -18 -19 -25 -41 -25 -24 0 -32 7
-49 40 l-19 39 28 -20 c16 -11 36 -19 46 -17z m188 -12 c3 -5 1 -10 -4 -10 -6
0 -11 5 -11 10 0 6 2 10 4 10 3 0 8 -4 11 -10z m-422 -25 c9 -23 -11 -28 -23
-5 -8 16 -8 20 4 20 7 0 16 -7 19 -15z m320 6 c26 -10 72 -90 58 -104 -19 -19
-91 45 -83 76 1 4 -5 7 -13 7 -16 0 -20 12 -8 23 9 9 17 9 46 -2z m122 -111
c-3 -5 -11 -10 -16 -10 -6 0 -7 5 -4 10 3 6 11 10 16 10 6 0 7 -4 4 -10z
m-265 -4 c0 -11 -33 -36 -48 -36 -11 0 -7 7 13 19 34 22 35 23 35 17z"/>
<path d="M230 2100 c8 -5 20 -10 25 -10 6 0 3 5 -5 10 -8 5 -19 10 -25 10 -5
0 -3 -5 5 -10z"/>
<path d="M184 2326 c14 -19 23 -41 20 -49 -3 -9 10 -32 31 -56 39 -43 55 -51
55 -26 0 21 -42 105 -53 105 -4 0 -5 5 -2 10 3 6 2 10 -4 10 -5 0 -13 9 -16
20 -4 13 -15 20 -32 20 l-25 0 26 -34z"/>
<path d="M105 1851 c22 -23 49 -47 60 -53 11 -6 18 -9 15 -6 -3 2 -30 26 -60
53 -54 49 -54 49 -15 6z"/>
<path d="M575 1703 c-33 -11 -58 -12 -138 -4 -125 14 -117 15 -117 -13 0 -37
18 -45 80 -34 121 22 196 39 210 48 26 16 6 18 -35 3z"/>
<path d="M1185 1510 c-8 -35 2 -90 16 -90 6 0 7 5 4 11 -4 5 -7 32 -7 60 1 56
-3 62 -13 19z"/>
<path d="M1430 1523 c0 -7 5 -15 10 -18 6 -3 10 -15 10 -25 0 -10 4 -21 9 -25
16 -9 5 45 -12 63 -10 9 -17 11 -17 5z"/>
<path d="M1151 1496 c9 -20 9 -32 1 -51 -7 -15 -8 -25 -2 -25 24 0 26 90 2 98
-10 3 -10 -2 -1 -22z"/>
<path d="M1330 1493 c0 -18 5 -33 10 -33 13 0 13 30 0 50 -7 11 -10 7 -10 -17z"/>
<path d="M1364 1504 c3 -9 6 -25 6 -35 0 -11 4 -18 8 -15 12 7 2 66 -10 66 -6
0 -7 -7 -4 -16z"/>
<path d="M1397 1500 c-7 -26 -4 -34 11 -29 4 2 5 15 2 29 l-6 25 -7 -25z"/>
<path d="M916 1494 c-9 -23 -7 -97 2 -112 6 -9 12 -5 20 13 16 34 15 38 -4 31
-14 -6 -16 0 -12 39 6 47 4 55 -6 29z"/>
<path d="M951 1494 c0 -11 3 -14 6 -6 3 7 2 16 -1 19 -3 4 -6 -2 -5 -13z"/>
<path d="M980 1491 c-14 -27 -13 -86 3 -99 9 -8 11 2 8 45 -2 39 1 58 10 64
10 6 10 9 2 9 -7 0 -17 -9 -23 -19z"/>
<path d="M1110 1456 c3 -30 9 -59 14 -63 12 -12 3 87 -9 104 -9 11 -10 2 -5
-41z"/>
<path d="M1295 1500 c-3 -5 -2 -10 4 -10 5 0 12 -12 14 -27 3 -23 4 -21 6 10
1 35 -11 49 -24 27z"/>
<path d="M1270 1476 c0 -22 3 -27 11 -19 8 8 8 16 0 30 -9 16 -10 14 -11 -11z"/>
<path d="M1222 1470 c0 -14 2 -19 5 -12 2 6 2 18 0 25 -3 6 -5 1 -5 -13z"/>
<path d="M1240 1468 c0 -9 5 -20 10 -23 13 -8 13 5 0 25 -8 13 -10 13 -10 -2z"/>
<path d="M1010 1442 c0 -11 6 -22 14 -25 10 -4 12 0 9 14 -7 27 -23 34 -23 11z"/>
<path d="M1050 1450 c-6 -44 -4 -90 3 -90 4 0 8 3 8 8 6 33 5 60 -2 77 -5 14
-8 16 -9 5z"/>
<path d="M708 1434 c6 -3 12 -20 12 -37 0 -31 15 -66 23 -57 3 3 2 25 -2 50
-5 35 -10 45 -26 47 -11 2 -14 0 -7 -3z"/>
<path d="M877 1433 c-9 -9 -9 -53 1 -53 4 0 7 14 7 30 0 17 0 30 -1 30 0 0 -4
-3 -7 -7z"/>
<path d="M798 1424 c-14 -21 3 -52 28 -50 19 1 23 5 19 25 -6 31 -15 40 -15
13 0 -32 -18 -36 -22 -5 -2 16 -6 23 -10 17z"/>
<path d="M760 1386 c0 -35 18 -69 32 -60 7 4 7 8 0 13 -6 3 -12 18 -14 33 -5
38 -18 47 -18 14z"/>
<path d="M940 1381 c0 -5 5 -13 10 -16 6 -3 10 -2 10 4 0 5 -4 13 -10 16 -5 3
-10 2 -10 -4z"/>
<path d="M2115 1275 c4 -11 8 -29 9 -40 0 -11 7 -22 14 -25 8 -3 12 -8 10 -11
-3 -4 7 -18 40 -54 9 -10 10 -15 2 -15 -6 0 -8 -5 -5 -10 4 -6 10 -8 14 -5 8
4 16 -21 28 -90 9 -52 22 -63 17 -15 l-5 45 25 -39 c14 -22 23 -43 20 -47 -2
-4 0 -9 5 -11 4 -1 22 -25 39 -53 32 -50 32 -50 32 -19 0 21 -12 49 -35 80
-20 27 -48 68 -63 92 -85 133 -153 234 -147 217z"/>
<path d="M762 1234 c-7 -8 -8 -14 -3 -14 10 0 25 19 20 25 -2 1 -10 -3 -17
-11z"/>
<path d="M531 1194 c0 -11 3 -14 6 -6 3 7 2 16 -1 19 -3 4 -6 -2 -5 -13z"/>
<path d="M320 1170 c0 -5 -5 -9 -11 -7 -6 1 -13 -3 -16 -10 -3 -7 3 -9 16 -6
18 4 31 33 16 33 -3 0 -5 -4 -5 -10z"/>
<path d="M340 1159 c0 -5 5 -7 10 -4 6 3 10 8 10 11 0 2 -4 4 -10 4 -5 0 -10
-5 -10 -11z"/>
<path d="M237 1143 c3 -6 11 -9 19 -6 20 7 17 19 -5 19 -11 0 -17 -6 -14 -13z"/>
<path d="M118 1123 c7 -3 16 -2 19 1 4 3 -2 6 -13 5 -11 0 -14 -3 -6 -6z"/>
<path d="M1370 33 c-37 -7 -46 -20 -10 -15 17 2 33 8 36 13 3 5 4 8 2 8 -2 -1
-14 -4 -28 -6z"/>
<path d="M1240 10 c-13 -9 -13 -10 0 -9 8 1 26 5 40 9 l25 8 -25 1 c-14 0 -32
-4 -40 -9z"/>
</g>
</svg>
