<?xml version="1.0" standalone="no"?>
<!DOCTYPE svg PUBLIC "-//W3C//DTD SVG 20010904//EN"
 "http://www.w3.org/TR/2001/REC-SVG-20010904/DTD/svg10.dtd">
<svg version="1.0" xmlns="http://www.w3.org/2000/svg"
 width="179.000000pt" height="30.000000pt" viewBox="0 0 179.000000 30.000000"
 preserveAspectRatio="xMidYMid meet">

<g transform="translate(0.000000,30.000000) scale(0.100000,-0.100000)"
fill="#000000" stroke="none">
<path d="M50 145 l0 -85 55 0 c42 0 55 3 55 15 0 10 -10 15 -34 15 -25 0 -35
5 -39 20 -4 17 0 20 34 20 28 0 39 4 39 15 0 10 -10 15 -34 15 -20 0 -36 6
-39 14 -8 20 2 26 40 26 23 0 33 5 33 15 0 12 -13 15 -55 15 l-55 0 0 -85z"/>
<path d="M212 214 c-16 -11 -22 -24 -20 -42 2 -22 11 -30 46 -41 54 -17 50
-37 -7 -33 -30 2 -41 -1 -41 -12 0 -17 21 -26 61 -26 46 0 69 17 69 50 0 32
-9 40 -54 50 -46 9 -41 36 7 33 26 -2 37 2 37 11 0 29 -63 35 -98 10z"/>
<path d="M350 145 c0 -78 2 -85 20 -85 16 0 20 7 20 30 0 27 3 30 33 30 42 0
57 15 57 57 0 40 -21 53 -84 53 l-46 0 0 -85z m90 40 c16 -19 4 -35 -26 -35
-19 0 -24 5 -24 25 0 29 29 35 50 10z"/>
<path d="M510 145 c0 -78 2 -85 20 -85 16 0 20 7 20 30 0 40 25 40 48 0 11
-20 25 -30 40 -30 l24 0 -20 33 c-18 28 -19 34 -6 51 34 48 -1 86 -78 86 l-48
0 0 -85z m84 49 c33 -13 11 -44 -30 -44 -8 0 -14 10 -14 25 0 25 13 31 44 19z"/>
<path d="M680 145 c0 -78 2 -85 20 -85 18 0 20 7 20 85 0 78 -2 85 -20 85 -18
0 -20 -7 -20 -85z"/>
<path d="M740 216 c0 -9 12 -16 28 -18 26 -3 27 -5 30 -70 3 -61 5 -68 23 -68
20 0 21 5 18 68 -4 67 -4 67 24 70 15 2 27 9 27 18 0 11 -17 14 -75 14 -58 0
-75 -3 -75 -14z"/>
<path d="M926 217 c-12 -9 -17 -23 -14 -42 2 -25 10 -32 46 -44 53 -16 50 -37
-6 -34 -54 2 -66 -23 -15 -33 53 -10 87 5 91 40 4 35 -6 46 -50 55 -48 10 -45
37 5 34 26 -2 37 2 37 11 0 27 -63 35 -94 13z"/>
<path d="M1085 205 c-53 -52 -16 -145 57 -145 41 0 60 11 49 29 -5 8 -17 11
-29 7 -35 -12 -62 10 -62 50 0 27 5 36 24 44 13 5 33 6 45 3 14 -4 21 -1 21
10 0 35 -72 36 -105 2z"/>
<path d="M1230 145 c0 -69 3 -85 15 -85 10 0 15 11 15 35 0 34 1 35 40 35 39
0 40 -1 40 -35 0 -28 4 -35 20 -35 18 0 20 7 20 85 0 78 -2 85 -20 85 -16 0
-20 -7 -20 -36 0 -35 -1 -35 -37 -32 -35 3 -38 6 -41 36 -2 20 -9 32 -18 32
-11 0 -14 -18 -14 -85z"/>
<path d="M1420 145 l0 -85 55 0 c42 0 55 3 55 15 0 11 -11 15 -40 15 -33 0
-40 3 -40 20 0 16 7 20 35 20 24 0 35 5 35 15 0 10 -11 15 -35 15 -28 0 -35 4
-35 20 0 17 7 20 40 20 29 0 40 4 40 15 0 12 -13 15 -55 15 l-55 0 0 -85z"/>
<path d="M1560 145 l0 -85 45 0 c62 0 102 22 110 60 15 68 -29 110 -116 110
l-39 0 0 -85z m98 39 c40 -28 25 -83 -24 -87 -27 -2 -29 1 -32 37 -6 66 11 82
56 50z"/>
</g>
</svg>
